# AST/ASF file generated using VICON BodyLanguage
# -----------------------------------------------
:version 1.10
:name VICON
:units
  mass 1.0
  length 0.45
  angle deg
:documentation
   .ast/.asf automatically generated from VICON data using
   VICON BodyBuilder and BodyLanguage model FoxedUp or BRILLIANT.MOD
:root
   order TX TY TZ RX RY RZ
   axis XYZ
   position 0 0 0  
   orientation 0 0 0 
:bonedata
  begin
     id 1 
     name lhipjoint
     direction 0.541323 -0.757556 0.364798 
     length 2.47576 
     axis 0 0 0  XYZ
  end
  begin
     id 2 
     name lfemur
     direction 0.34202 -0.939693 0  
     length 7.46493  
     axis 0 0 20  XYZ
    dof rx ry rz
    limits (-160.0 20.0)
           (-70.0 70.0)
           (-60.0 70.0)
  end
  begin
     id 3 
     name ltibia
     direction 0.34202 -0.939693 0   
     length 7.73805   
     axis 0 0 20   XYZ
    dof rx
    limits (-10.0 170.0)
  end
  begin
     id 4 
     name lfoot
     direction 0.107174 -0.294458 0.949636   
     length 2.25864   
     axis -90 7.62852e-016 20   XYZ
    dof rx rz
    limits (-45.0 90.0)
           (-70.0 20.0)
  end
  begin
     id 5 
     name ltoes
     direction 1.53606e-011 -4.21934e-011 1   
     length 1.12451   
     axis -90 7.62852e-016 20   XYZ
    dof rx
    limits (-90.0 20.0)
  end
  begin
     id 6 
     name rhipjoint
     direction -0.524745 -0.766967 0.36933   
     length 2.44538  
     axis 0 0 0  XYZ 
  end
  begin
     id 7 
     name rfemur
     direction -0.34202 -0.939693 0   
     length 7.61604   
     axis 0 0 -20   XYZ
    dof rx ry rz
    limits (-160.0 20.0)
           (-70.0 70.0)
           (-70.0 60.0)
  end
  begin
     id 8 
     name rtibia
     direction -0.34202 -0.939693 0   
     length 7.61056   
     axis 0 0 -20   XYZ
    dof rx
    limits (-10.0 170.0)
 end
 begin
     id 9 
     name rfoot
     direction -0.12616 -0.346623 0.929482   
     length 2.46372  
     axis -90 -7.62852e-016 -20   XYZ
    dof rx rz
    limits (-45.0 90.0)
           (-20.0 70.0)
  end
  begin
     id 10 
     name rtoes
     direction -1.53531e-011 -4.22004e-011 1   
     length 1.21611   
     axis -90 -7.62852e-016 -20   XYZ
    dof rx
    limits (-90.0 20.0)
  end
  begin
     id 11 
     name lowerback
     direction -0.000778023 0.997293 -0.0735223   
     length 2.06139   
     axis 0 0 0   XYZ
    dof rx ry rz
    limits (-20.0 45.0)
           (-30.0 30.0)
           (-30.0 30.0)
  end
  begin
     id 12 
     name upperback
     direction 0.0222598 0.999722 -0.0078355   
     length 2.06383   
     axis 0 0 0   XYZ
    dof rx ry rz
    limits (-20.0 45.0)
           (-30.0 30.0)
           (-30.0 30.0)
  end
  begin
     id 13 
     name thorax
     direction 0.0219654 0.999405 0.0265994   
     length 2.07163   
     axis 0 0 0   XYZ
    dof rx ry rz
    limits (-20.0 45.0)
           (-30.0 30.0)
           (-30.0 30.0)
  end
  begin
     id 14 
     name lowerneck
     direction 0.0213282 0.988147 0.15202   
     length 1.75969   
     axis 0 0 0   XYZ
    dof rx ry rz
    limits (-20.0 45.0)
           (-30.0 30.0)
           (-30.0 30.0)
  end
  begin
     id 15 
     name upperneck
     direction -0.0546456 0.982624 -0.177379   
     length 1.79244   
     axis 0 0 0   XYZ
    dof rx ry rz
    limits (-20.0 45.0)
           (-30.0 30.0)
           (-30.0 30.0)
  end
  begin
     id 16
     name head
     direction -0.0199987 0.996855 -0.076686  
     length 1.80555  
     axis 0 0 0   XYZ
    dof rx ry rz
    limits (-20.0 45.0)
           (-30.0 30.0)
           (-30.0 30.0)
  end
  begin
     id 17 
     name lclavicle
     direction 0.929565 0.363219 -0.063096  
     length 3.55722  
     axis 0 0 0   XYZ
    dof ry rz
    limits (-20.0 10.0)
           (0.0 20.0)
  end
  begin
     id 18 
     name lhumerus
     direction 1 -4.48993e-011 -2.36203e-027   
     length 4.92785   
     axis 180 -30 -90   XYZ
    dof rx ry rz
    limits (-60.0 90.0)
           (-90.0 90.0)
           (-90.0 90.0)
  end
  begin
     id 19
     name lradius
     direction 1 -4.48947e-011 2.02997e-027   
     length 3.44052   
     axis 180 -30 -90   XYZ
    dof rx
    limits (-10.0 170.0)
  end
  begin
     id 20
     name lwrist
     direction 1 -4.48962e-011 1.45991e-027   
     length 1.72026   
     axis 1.49639e-024 90 90   XYZ
    dof ry
    limits (-180.0 0.0)
 end
  begin
     id 21 
     name lhand
     direction 1 -4.48984e-011 2.91906e-027   
     length 0.654326   
     axis -1.863e-015 90 90   XYZ
    dof rx rz
    limits (-90.0 90.0)
           (-45.0 45.0)
  end
  begin
     id 22 
     name lfingers
     direction 1 -4.48961e-011 5.83968e-027   
     length 0.527534   
     axis -3.72598e-015 90 90   XYZ
    dof rx
    limits (0.0 90.0)
  end
  begin
     id 23
     name lthumb
     direction 0.707107 -6.34963e-011 0.707107   
     length 0.757437   
     axis -90 45 -6.68868e-015   XYZ
    dof rx rz
    limits (-45.0 45.0)
           (-45.0 45.0)
  end
  begin
     id 24 
     name rclavicle
     direction -0.902944 0.422599 -0.0781198   
     length 3.54432  
     axis 0 0 0   XYZ 
    dof ry rz
    limits (-10.0 20.0)
           (-20.0 0.0)
  end
  begin
     id 25 
     name rhumerus
     direction -1 -4.48953e-011 -4.75835e-028  
     length 5.09181   
     axis 180 30 90   XYZ
    dof rx ry rz
    limits (-90.0 60.0)
           (-90.0 90.0)
           (-90.0 90.0)
  end
  begin
     id 26 
     name rradius
     direction -1 -4.48986e-011 -3.25889e-027   
     length 3.49865   
     axis 180 30 90   XYZ
    dof rx
    limits (-10.0 170.0)
  end
  begin
     id 27 
     name rwrist
     direction -1 -4.48963e-011 1.45989e-027   
     length 1.74933   
     axis 1.49639e-024 -90 -90   XYZ
    dof ry
    limits (-180.0 0.0)
  end
  begin
     id 28
     name rhand
     direction -1 -4.49003e-011 2.91844e-027   
     length 0.66641   
     axis -1.863e-015 -90 -90   XYZ
    dof rx rz
    limits (-90.0 90.0)
           (-45.0 45.0)
  end
  begin
     id 29
     name rfingers
     direction -1 -4.48973e-011 5.83886e-027   
     length 0.537277   
     axis -3.72598e-015 -90 -90   XYZ
    dof rx
    limits (0.0 90.0)
  end
  begin
     id 30
     name rthumb
     direction -0.707107 -6.34976e-011 0.707107   
     length 0.771425   
     axis -90 -45 6.68868e-015   XYZ
    dof rx rz
    limits (-45.0 45.0)
           (-45.0 45.0)
  end
:hierarchy
  begin
    root lhipjoint rhipjoint lowerback
    lhipjoint lfemur
    lfemur ltibia
    ltibia lfoot
    lfoot ltoes
    rhipjoint rfemur
    rfemur rtibia
    rtibia rfoot
    rfoot rtoes
    lowerback upperback
    upperback thorax
    thorax lowerneck lclavicle rclavicle
    lowerneck upperneck
    upperneck head
    lclavicle lhumerus
    lhumerus lradius
    lradius lwrist
    lwrist lhand lthumb
    lhand lfingers
    rclavicle rhumerus
    rhumerus rradius
    rradius rwrist
    rwrist rhand rthumb
    rhand rfingers
  end

#!OML:ASF H:\LiuWeirdWalks\Patient Classification 1\Patient 1\Session 1\male.ASF
:FULLY-SPECIFIED
:DEGREES
33
root 1.33759 16.4738 4.15202 -7.0724 0.271151 -1.31901
lowerback 9.24566 0.244047 -0.387704
upperback 2.06393 0.370308 2.35491
thorax -3.05916 0.192297 2.61636
lowerneck -23.1919 1.82645 4.94729
upperneck 19.51 2.50896 -6.84646
head 10.2087 0.689363 -2.87548
rclavicle -1.88845e-015 -1.78906e-014
rhumerus 25.7833 -1.76207 -40.8728
rradius 69.8583
rwrist 2.2422
rhand 12.1841 -1.9174
rfingers 7.12502
rthumb 37.1949 -27.9312
lclavicle -1.88845e-015 -1.78906e-014
lhumerus 20.005 8.26078 53.8491
lradius 70.4785
lwrist -13.5959
lhand 13.8332 -2.43258
lfingers 7.12502
lthumb 38.7522 23.158
rfemur -13.7665 -9.45444 15.4141
rtibia 59.6363
rfoot -27.4538 -16.7047
rtoes -12.1045
lfemur -13.2917 11.0366 -11.895
ltibia 56.7812
lfoot -25.3254 14.1031
ltoes -13.3771
34
root 1.33627 16.474 4.15218 -7.06971 0.277207 -1.30901
lowerback 9.24288 0.242399 -0.390559
upperback 2.06945 0.367712 2.3547
thorax -3.05177 0.190934 2.61804
lowerneck -23.2225 1.83596 4.95572
upperneck 19.5399 2.52191 -6.85582
head 10.2261 0.69413 -2.87901
rclavicle -2.88238e-015 -1.35174e-014
rhumerus 25.7972 -1.76487 -40.8833
rradius 69.8522
rwrist 2.30429
rhand 12.1683 -1.91408
rfingers 7.12502
rthumb 37.1799 -27.9318
lclavicle -2.88238e-015 -1.35174e-014
lhumerus 20.0133 8.25637 53.8679
lradius 70.4895
lwrist -13.6266
lhand 13.8162 -2.55264
lfingers 7.12502
lthumb 38.7362 23.0424
rfemur -13.7702 -9.45413 15.4083
rtibia 59.6413
rfoot -27.4579 -16.7089
rtoes -12.107
lfemur -13.2925 11.035 -11.9023
ltibia 56.7754
lfoot -25.321 14.0992
ltoes -13.3736
35
root 1.33513 16.4742 4.15239 -7.06496 0.283149 -1.30201
lowerback 9.23893 0.241259 -0.386554
upperback 2.07584 0.366378 2.35328
thorax -3.04286 0.190128 2.61443
lowerneck -23.2606 1.84483 4.96954
upperneck 19.5692 2.53288 -6.86973
head 10.2447 0.697719 -2.8854
rclavicle 1.92573e-015 -3.97569e-016
rhumerus 25.807 -1.7685 -40.8876
rradius 69.8518
rwrist 2.36345
rhand 12.1549 -1.90688
rfingers 7.12502
rthumb 37.1672 -27.9279
lclavicle 1.92573e-015 -3.97569e-016
lhumerus 20.0277 8.25035 53.8849
lradius 70.4979
lwrist -13.6468
lhand 13.7753 -2.6868
lfingers 7.12502
lthumb 38.6976 22.9192
rfemur -13.7741 -9.45471 15.4053
rtibia 59.6432
rfoot -27.4609 -16.713
rtoes -12.1045
lfemur -13.2947 11.0326 -11.9081
ltibia 56.7685
lfoot -25.3161 14.0959
ltoes -13.3669
36
root 1.33413 16.4745 4.15261 -7.05962 0.291998 -1.29044
lowerback 9.23609 0.239487 -0.386518
upperback 2.08207 0.363765 2.34971
thorax -3.03467 0.188717 2.61098
lowerneck -23.2995 1.84997 4.97695
upperneck 19.5954 2.53903 -6.87705
head 10.2619 0.699407 -2.88904
rclavicle 3.23025e-016 7.15625e-015
rhumerus 25.8149 -1.76795 -40.8835
rradius 69.8557
rwrist 2.41044
rhand 12.1455 -1.88983
rfingers 7.12502
rthumb 37.1583 -27.9132
lclavicle 3.23025e-016 7.15625e-015
lhumerus 20.0464 8.24724 53.9039
lradius 70.5035
lwrist -13.6501
lhand 13.7271 -2.83222
lfingers 7.12502
lthumb 38.6522 22.7866
rfemur -13.7763 -9.45941 15.3951
rtibia 59.6426
rfoot -27.464 -16.7136
rtoes -12.1002
lfemur -13.297 11.0257 -11.9213
ltibia 56.7598
lfoot -25.3096 14.0968
ltoes -13.3688
37
root 1.33325 16.4749 4.1529 -7.05461 0.303179 -1.27561
lowerback 9.23264 0.236957 -0.388735
upperback 2.08756 0.359856 2.34377
thorax -3.02686 0.186681 2.60649
lowerneck -23.3331 1.85029 4.97588
upperneck 19.6126 2.5391 -6.87601
head 10.2741 0.698807 -2.88898
rclavicle 1.70209e-015 6.75868e-015
rhumerus 25.8167 -1.76231 -40.8732
rradius 69.866
rwrist 2.4315
rhand 12.14 -1.86966
rfingers 7.12502
rthumb 37.1532 -27.8944
lclavicle 1.70209e-015 6.75868e-015
lhumerus 20.062 8.24109 53.9173
lradius 70.5075
lwrist -13.6428
lhand 13.6607 -2.98902
lfingers 7.12502
lthumb 38.5895 22.6474
rfemur -13.7757 -9.46751 15.3795
rtibia 59.6395
rfoot -27.4668 -16.7133
rtoes -12.093
lfemur -13.2977 11.0134 -11.9405
ltibia 56.7494
lfoot -25.3022 14.1023
ltoes -13.3684
38
root 1.33245 16.4753 4.15322 -7.0506 0.312304 -1.2666
lowerback 9.22752 0.232713 -0.386356
upperback 2.09294 0.354157 2.33973
thorax -3.01812 0.183719 2.60157
lowerneck -23.3543 1.84543 4.96226
upperneck 19.626 2.53418 -6.86499
head 10.2821 0.696408 -2.88385
rclavicle 1.59028e-015 1.98785e-015
rhumerus 25.8212 -1.75153 -40.8635
rradius 69.8802
rwrist 2.42604
rhand 12.1464 -1.85455
rfingers 7.12502
rthumb 37.1592 -27.8777
lclavicle 1.59028e-015 1.98785e-015
lhumerus 20.0727 8.2404 53.9273
lradius 70.5115
lwrist -13.6319
lhand 13.5921 -3.15419
lfingers 7.12502
lthumb 38.5248 22.5003
rfemur -13.7731 -9.47429 15.3705
rtibia 59.6341
rfoot -27.4697 -16.7134
rtoes -12.0835
lfemur -13.2958 11.0014 -11.953
ltibia 56.7377
lfoot -25.2939 14.1088
ltoes -13.3724
39
root 1.3318 16.4759 4.15371 -7.04926 0.320052 -1.25364
lowerback 9.2204 0.229346 -0.386364
upperback 2.09573 0.349392 2.3347
thorax -3.01102 0.181267 2.59688
lowerneck -23.3571 1.82665 4.91759
upperneck 19.6381 2.5162 -6.83285
head 10.2847 0.688516 -2.86783
rclavicle 2.44754e-015 3.18055e-015
rhumerus 25.8189 -1.73474 -40.852
rradius 69.8987
rwrist 2.40617
rhand 12.16 -1.84492
rfingers 7.12502
rthumb 37.172 -27.8647
lclavicle 2.44754e-015 3.18055e-015
lhumerus 20.0773 8.23602 53.9372
lradius 70.5141
lwrist -13.6184
lhand 13.5127 -3.31734
lfingers 7.12502
lthumb 38.4499 22.3581
rfemur -13.7657 -9.48106 15.3555
rtibia 59.6263
rfoot -27.4702 -16.7133
rtoes -12.0802
lfemur -13.2885 10.9865 -11.971
ltibia 56.7243
lfoot -25.2873 14.121
ltoes -13.375
40
root 1.33112 16.4765 4.15417 -7.04976 0.321503 -1.24797
lowerback 9.21192 0.226621 -0.380712
upperback 2.09724 0.346173 2.3338
thorax -3.00456 0.179567 2.5931
lowerneck -23.3491 1.79993 4.85034
upperneck 19.656 2.49254 -6.78754
head 10.2865 0.678036 -2.84422
rclavicle -3.16813e-015 -1.15295e-014
rhumerus 25.8189 -1.71307 -40.842
rradius 69.9191
rwrist 2.3792
rhand 12.1808 -1.84332
rfingers 7.12502
rthumb 37.1917 -27.858
lclavicle -3.16813e-015 -1.15295e-014
lhumerus 20.0756 8.23349 53.9475
lradius 70.5192
lwrist -13.6068
lhand 13.4399 -3.47928
lfingers 7.12502
lthumb 38.3811 22.2152
rfemur -13.757 -9.48101 15.3506
rtibia 59.6167
rfoot -27.4701 -16.7145
rtoes -12.0757
lfemur -13.2782 10.9763 -11.9783
ltibia 56.7106
lfoot -25.2825 14.1301
ltoes -13.3741
41
root 1.33042 16.4772 4.15466 -7.05032 0.317285 -1.24539
lowerback 9.19977 0.22541 -0.372052
upperback 2.09912 0.345284 2.33512
thorax -2.9958 0.17899 2.58965
lowerneck -23.3432 1.76704 4.76398
upperneck 19.6842 2.46483 -6.73174
head 10.2918 0.665399 -2.81447
rclavicle -3.6154e-015 -7.15625e-015
rhumerus 25.8233 -1.69108 -40.8317
rradius 69.9396
rwrist 2.34973
rhand 12.2099 -1.85671
rfingers 7.12502
rthumb 37.2192 -27.8642
lclavicle -3.6154e-015 -7.15625e-015
lhumerus 20.0746 8.23395 53.9635
lradius 70.525
lwrist -13.5964
lhand 13.3471 -3.60947
lfingers 7.12502
lthumb 38.2936 22.1093
rfemur -13.749 -9.47526 15.351
rtibia 59.6056
rfoot -27.4674 -16.7174
rtoes -12.0769
lfemur -13.2676 10.9665 -11.9808
ltibia 56.6961
lfoot -25.2814 14.1314
ltoes -13.3536
42
root 1.32964 16.478 4.15517 -7.05164 0.310095 -1.24246
lowerback 9.18568 0.225145 -0.364876
upperback 2.1024 0.345496 2.33731
thorax -2.98458 0.178946 2.58781
lowerneck -23.3465 1.73353 4.67417
upperneck 19.7266 2.4377 -6.67541
head 10.304 0.652578 -2.7842
rclavicle 3.52843e-015 2.38542e-014
rhumerus 25.836 -1.66835 -40.8182
rradius 69.9568
rwrist 2.32515
rhand 12.2391 -1.87726
rfingers 7.12502
rthumb 37.2469 -27.8775
lclavicle 3.52843e-015 2.38542e-014
lhumerus 20.0725 8.23618 53.9793
lradius 70.5321
lwrist -13.5839
lhand 13.2654 -3.71527
lfingers 7.12502
lthumb 38.2164 22.0247
rfemur -13.7405 -9.46566 15.3521
rtibia 59.5942
rfoot -27.4652 -16.7186
rtoes -12.077
lfemur -13.255 10.9588 -11.9815
ltibia 56.6805
lfoot -25.2845 14.1241
ltoes -13.3168
